# xmcd
#
# Track frame offsets:
#	150
#	16435
#	30648
#	51649
#	66895
#	79631
#	99611
#	112094
#	123215
#	142642
#	159619
#	173367
#	188319
#	203271
#	229151
#	242926
#	258832
#	274964
#	291222
#	311177
#	327130
#
# Disc length: 4679 seconds
# Revision: 0
# Processed by: cddbd v1.5.2PL0 Copyright (c) Steve Scherf et al.
# Submitted via: dBpowerAMP V12.0
#
DISCID=1e124515
DTITLE=Bodie Wagner - Vintage
DYEAR=2010
DGENRE=Country
TTITLE0=Chugga Tramp
TTITLE1=Just Me
TTITLE2=I Gave My Heart to San Antone
TTITLE3=I'd Like to Say I'm Proud
TTITLE4=I Been On the Road
TTITLE5=One of Those Countless Truck
TTITLE6=America
TTITLE7=Wooly Bum Man
TTITLE8=Rocky Rose
TTITLE9=Magic Mojo
TTITLE10=Louisiana Bo
TTITLE11=Black Bird
TTITLE12=Bumble Bee
TTITLE13=Fall
TTITLE14=The Bankers and The Diplomats
TTITLE15=The Moon
TTITLE16=Sorry As the Roses
TTITLE17=Voo Doo
TTITLE18=True Blue
TTITLE19=Halloween
TTITLE20=I Believe
EXTD=
EXTT0=
EXTT1=
EXTT2=
EXTT3=
EXTT4=
EXTT5=
EXTT6=
EXTT7=
EXTT8=
EXTT9=
EXTT10=
EXTT11=
EXTT12=
EXTT13=
EXTT14=
EXTT15=
EXTT16=
EXTT17=
EXTT18=
EXTT19=
EXTT20=
PLAYORDER=
